<?xml version="1.0" encoding="UTF-8"?><svg id="Layer_2" xmlns="http://www.w3.org/2000/svg" viewBox="0 0 485.61 580.54"><defs><style>.cls-1{fill:#fff;}.cls-2{opacity:.8;}.cls-3{fill:none;stroke:#fff;stroke-miterlimit:10;stroke-width:1.75px;}</style></defs><g id="SVG"><g class="cls-2"><path class="cls-1" d="M416.93,479.11c-.79,.85-1.65,.76-2.44,.85-3.87,.43-7.79,.61-11.62,1.29-5.49,.98-10.97,2.1-16.36,3.54-8.71,2.34-17.63,3.29-26.51,4.6-14.86,2.18-29.78,3.58-44.77,4.26-7.73,.35-15.48,.33-23.14-1.91-.15,1.09,.29,1.95,.54,2.82,3.08,10.61,6.19,21.21,9.27,31.82,.46,1.59,.9,3.19,1.22,4.81,.28,1.42,.99,1.92,2.44,1.91,8.1-.05,16.2-.2,24.29,.02,18.84,.49,37.69,.21,56.53,.31,.3,0,.59,0,.89,.02,.96,.09,2.75,1.7,2.5,2.38-.4,1.07-1.5,.74-2.31,.74-17.96,.04-35.93,.05-53.89,.05-29.66,.01-59.33,.02-88.99,.03q-2.88,0-2.88,2.95c0,12.94-.01,25.88-.03,38.82,0,.67,.23,1.4-.38,2.12-.57-.64-.37-1.37-.37-2.01-.02-8.39,.02-16.78-.02-25.17-.02-4.78-.17-9.56-.24-14.35-.04-2.3-.06-2.35-2.42-2.35-21.27,0-42.55,0-63.82-.02-17.85-.01-35.69,.12-53.54-.16-5.24-.08-10.48,.3-15.74-.05-3.79-.26-7.66,.23-11.5,.14-.81-.02-2.14,.53-2.14-1.04,0-1.37,.72-2.08,2.25-2.07,8.98,.03,17.97,.18,26.94-.07,18.25-.5,36.51-.15,54.76-.26,1.29,0,2.2-.19,2.67-1.66,3.69-11.41,7.47-22.8,11.21-34.19,.11-.32,.31-.65,.03-1.2-4.93,4.09-10.48,1.93-15.8,1.39-12.16-1.23-24.29-2.71-36.44-4.12-12.67-1.47-25.34-2.97-38-4.44-11.5-1.34-22.99-2.69-34.49-3.99-5.34-.6-5.37-.54-7.93-5.53-2.39-4.64-3.43-9.67-4.05-14.8-.77-6.4-.69-12.85-1.1-19.28-.06-.94-.18-1.88-.2-2.83-.04-1.55-.14-2.88-2.16-3.23-1.08-.18-1.14-1.23-.67-2.16,.79-1.57,2.08-2.73,3.72-3.07,3.56-.73,4.92-2.97,5.79-6.33,1.83-7.04,4.87-13.68,7.69-20.38,.9-2.13,.84-2.25-1.52-2.25-6.09,0-12.17,0-18.26,0-1.22,0-2.86,.19-2.87-1.52,0-1.56,1.69-1.62,2.76-1.51,3.89,.39,7.76-.3,11.66,.1,2.91,.3,5.87-.19,8.81,0,1.45,.09,2.11-.87,2.68-2.12,4.75-10.42,10.48-20.25,18.06-28.91,6.73-7.68,15.12-11.62,25.43-12.19,14.17-.78,28.33-.43,42.49-.54,1.77-.01,2.49-.51,2.32-2.33-.13-1.4-.05-2.83,.61-4.4,.7,1.46,.75,2.83,.77,4.21,.03,2.46,.04,2.48,2.47,2.47,21.75-.01,43.49-.03,65.24-.05,3.78,0,7.56,.03,11.35,0,.95,0,2.06,.35,2.72-.78,.13-.23,.47-.29,.61-.1,1.11,1.52,2.72,.85,4.1,.86,14.6,.06,29.19-.11,43.78,.15,7.14,.13,14.2,1.54,21.26,2.66,9.05,1.44,18.08,2.92,26.84,5.71,15.11,4.81,28.65,12.24,39.81,23.67,3.26,3.34,6.56,6.64,9.74,10.06,1.24,1.33,2.57,1.83,4.36,1.82,30.08-.04,60.16-.03,90.23-.03,1.31,0,2.61-.02,3.81,.6,.85,.44,.85,.86,0,1.36-.99,.58-2.05,.48-3.11,.48-29.25,0-58.5,0-87.75,.02-.92,0-2.28-.47-2.66,.33-.48,1.01,.94,1.56,1.53,2.3,2.87,3.61,6.12,6.89,9.27,10.25,.68,.73,1.27,1.15,2.42,.95,1.98-.35,3.43,.99,3.72,3.11,.57,4.07,.18,8.15-.12,12.21-.9,12.58-2.86,25-6.33,37.15-.34,1.19-.72,2.37-1.13,3.55-.37,1.07,.07,1.44,1.08,1.36,3.71-.26,7.42-.53,11.13-.79,6.07-.43,12.13-.9,18.2-1.26,9.66-.57,19.33-1.08,28.99-1.6,.1,0,.2,.08,.63,.27-1.85,.2-3.39,.42-4.95,.54-11.59,.88-23.19,1.75-34.78,2.61-6.53,.48-13.07,.94-19.61,1.41-.65,.05-1.33,.04-1.79,.6-.41,.49-1.03,1.02-.76,1.68,.3,.73,1.04,.3,1.58,.22,4.39-.71,8.82-.81,13.24-1.03,.99-.05,1.99,.05,3.13,.54Zm-210.37-26.87c1.03-.26,1.6-1.17,2.41-1.75,.86-.61,1.9-1.18,1.06-2.53-.13-.2-.11-.52,.15-.6,.18-.06,.51,.02,.62,.16,.87,1.06,1.64,.48,2.44-.09,1.89-1.33,3.96-2.36,6.05-3.31,2.02-.91,4.1-1.68,6.15-2.51-4.91-.27-9.77-.28-14.64-.27-.61,0-.98,.41-1.15,.95-1.02,3.32-2.34,6.56-3.08,9.97l-.02-.02Zm9.24-30.82l-.02-.02c-.02,1.39-.68,2.62-.97,3.94-.08,.39-.28,.94-.1,1.17,.36,.46,.87,.02,1.28-.13,7.2-2.69,14.65-4.15,22.3-4.57,1.71-.09,2.06-.8,2.03-2.29-.08-3.96-.04-7.91-.06-11.87,0-2.54-.03-2.57-2.57-2.57-12.58,0-25.16,0-37.75,0-13.05,0-26.11,.01-39.16-.02-1.46,0-2.37,.28-2.36,2.01,.01,10.1-.03,20.2-.07,30.3,0,1.19,.4,1.7,1.65,1.69,5.2-.05,10.39-.23,15.55-.87,12.65-1.58,24.59-5.67,36.38-10.3,.96-.38,1.51-1.02,1.91-1.94,.66-1.51,.96-3.17,1.95-4.53Zm68.35,18.35c-.15-.99-.87-1.3-1.31-1.81-.68-.8-1.13-1.66-1.06-2.73,.03-.41,.1-.94,.55-1.02,.62-.11,.49,.5,.59,.86,.6,2.04,3.57,4.73,5.47,4.74,8.86,.04,17.73,.02,26.59,.03,1.01,0,1.58-.37,1.52-1.45-.08-1.35-.2-2.71-.22-4.06-.03-1.67-.93-2.31-2.5-2.59-6.94-1.22-13.88-.91-20.83-.18-3.07,.32-6.08,1.02-9.06,1.89,1.02-1.34,2.54-1.69,3.99-2.06,6.41-1.63,12.94-2.05,19.52-1.73,2.41,.12,4.85,.24,7.17,1.06,1.03,.36,1.97,.8,2.32,1.98,.43,1.48,.95,2.94,1.02,4.48,.12,2.73,.04,2.65,2.88,2.65,18.32,0,36.64,0,54.95,.04,2.08,0,4.16,.27,6.24,.42-.73,.87-1.59,.93-2.44,.94-2.66,.05-5.32,.1-7.98,.1-17.08,.01-34.15,.03-51.23-.02-1.76,0-2.47,.5-2.39,2.3,.09,1.84-.31,3.65-1.1,5.34-.45,.97-.89,1.58-2.3,1.07-1.51-.56-3.24-.44-4.9-.4-4.37,.09-8.73,.13-13.1,.11-1.91-.01-3.52-.74-4.68-2.42-1.1-1.6-2.36-3.1-3.59-4.6-.48-.59-1.05-1.24-1.86-1.26-2.92-.05-5.84-.02-8.8-.02,.05,.3,.03,.45,.1,.51,1.25,1.26,2.53,2.48,3.76,3.76,9.65,10.01,14.91,21.98,15.93,35.83,.14,1.87,.5,2.09,2.7,1.86,9.75-1.01,19.51-1.78,29.29-2.42,7.36-.48,14.72-1,22.09-1.51,9.66-.67,19.31-1.36,28.97-2.03,5.54-.39,11.07-.75,16.61-1.15,1.03-.07,1.98-.26,2.31-1.51,1.45-5.61,2.74-11.25,3.62-16.98,.18-1.2-.26-1.93-1.43-2.25-.85-.24-1.69-.54-2.54-.8-4.31-1.3-8.52-2.78-12.45-5.06-1.6-.93-2.05-1.99-2-3.7,.13-4.09,.25-4.31,4.3-4.36,4.84-.06,9.69-.04,14.54-.04,.93,0,1.83,0,1.95-1.25,.47-4.76,.87-9.53,.83-14.32,0-.84-.27-1.31-1.26-1.24-8.14,.59-16.3,.23-24.45,.45-11.46,.32-22.91-.27-34.37-.49-16.42-.32-32.85-.31-49.27-.4-7.8-.04-15.59-.43-23.38-.75-1.59-.06-1.94,.38-1.45,1.91,1.35,4.22,2.58,8.48,3.87,12.72,.2,.67,.33,1.52,1.22,1.55,2.33,.06,4.67,.02,7.06,.02Zm-42.79-60.3c.09,5.63-.18,12.54,.29,19.44,.2,3,.04,3.02,3.05,3.02,32.38,0,64.75,.04,97.13-.02,13.76-.03,27.52,.19,41.27,.37,.57,0,1.36,.27,1.65-.3,.37-.73-.47-1.12-.89-1.54-3.35-3.42-6.67-6.87-10.11-10.19-6.72-6.49-14.26-11.86-22.73-15.82-10.66-4.99-21.79-8.45-33.43-10.26-11.13-1.73-22.18-4.07-33.53-4.03-13.53,.06-27.06,.03-40.59-.02-1.63,0-2.15,.51-2.13,2.13,.08,5.32,.03,10.63,.03,17.22Zm-83.77,81.83h0c0-6.15-.03-12.29,.02-18.44,.01-1.42-.42-1.99-1.92-1.99-6.02,0-12.05-.12-18.07-.2-14.71-.2-29.42,.31-44.13-.39-7.38-.35-14.76-.46-22.15-.51-5.83-.04-11.65-.67-17.48,.24-1.23,.19-1.33,.55-1.16,1.51,1.03,6.13,.93,12.36,1.49,18.53,.41,4.6,1.16,9.14,2.48,13.58,.32,1.06,.65,2,2.07,1.99,7.33-.07,14.62,.67,21.93,1.09,8.07,.46,16.15,.99,24.22,1.51,10.43,.67,20.85,1.36,31.28,2.04,6.36,.42,12.73,.8,19.08,1.26,2.12,.15,2.34,.04,2.35-2.15,.01-6.03,0-12.05,0-18.08Zm42.01-101.15v-.05c-12.88,0-25.76,.03-38.64-.03-1.78,0-2.34,.52-2.33,2.32,.06,12.35,.02,24.69,.02,37.04,0,2.44,.07,2.51,2.47,2.51,25.58,0,51.16,0,76.74,0,2.33,0,2.41-.08,2.41-2.37,0-12.35-.01-24.69-.02-37.04,0-2.35-.01-2.36-2.37-2.36-12.76,0-25.52,0-38.28,0Zm-86.82,44.93h0c-13.94-.01-27.87,0-41.81-.03-1.34,0-2.32,.2-2.95,1.63-3.45,7.77-7.18,15.42-9.58,23.62-.65,2.22-2.12,3.76-4.2,4.73-.85,.4-1.72,.79-2.53,1.27-.49,.28-1.21,.61-1.04,1.27,.15,.6,.93,.45,1.41,.44,1.76-.03,3.53-.25,5.29-.24,13.81,.09,27.62,.58,41.43,.88,18.77,.41,37.55,.31,56.33,.42,2.42,.01,2.47-.03,2.45-2.49-.08-9.68-.18-19.36-.27-29.05-.02-2.4-.07-2.44-2.53-2.45-14,0-27.99,0-41.99,0Zm.92-3.14h0c13.76,0,27.52-.03,41.28,.01,1.59,0,2.34-.35,2.33-2.15-.07-12.58-.07-25.16-.03-37.74,0-1.44-.43-1.99-1.91-1.99-10.57,.03-21.14,0-31.72,0-.46,0-1.25,0-1.33,.22-.83,2.16-2.54,1.31-3.93,1.14-11.01-1.32-20.6,1.48-28.35,9.69-7.91,8.38-13.59,18.25-18.72,28.46-1.13,2.25-1.01,2.36,1.61,2.36,13.58,0,27.17,0,40.75,0Zm192.51,3.14c-20.73,0-41.47,0-62.2,0-2.22,0-2.33,.09-2.3,2.29,.06,4.19,.21,8.38,.25,12.57,.01,1.31,.51,1.77,1.8,1.74,3.25-.06,6.5-.04,9.75-.03,4.61,.02,9.22,.07,13.82,.08,2,0,2.11-.15,1.62-1.99-.32-1.2-.62-2.4-.91-3.61-.07-.28-.1-.63,.26-.74,.37-.11,.53,.21,.63,.48,.38,1.06,.75,2.11,1.09,3.18,.89,2.76,.88,2.82,3.74,2.91,8.85,.27,17.71,.59,26.56,.72,18.25,.26,36.5-.15,54.75,.51,16.48,.59,32.95,.29,49.43-.06,.35,0,.73,0,1.05-.11,.66-.24,.56-.83,.48-1.36-.06-.44-.3-.9-.81-.61-1.21,.69-1.86-.19-2.61-.82-4.92-4.11-8.9-9.12-13.21-13.82-1.1-1.2-2.23-1.74-3.84-1.73-6.43,.07-12.86,.26-19.29,.31-20.02,.18-40.05,.07-60.08,.07Zm-102.61,36.19c-2.69,0-5.37,.01-8.06,0-.56,0-1.43,.16-1.48-.57-.06-.93,.89-.77,1.48-.78,3.07-.03,6.15,.05,9.21-.04,2.39-.07,4.11-1.4,5.13-3.47,.78-1.58,1.3-3.29,1.89-4.96,.16-.47,.64-1.05,.15-1.47-.46-.39-1,.11-1.47,.28-3.99,1.47-7.94,3.06-11.97,4.42-12.3,4.18-24.95,6.24-37.94,6.19-1.53,0-2.23,.35-2.22,2.06,.06,12.29,.04,24.57,0,36.86,0,1.33,.42,1.91,1.79,1.99,6.78,.4,13.55,.87,20.32,1.32,2.18,.14,4.36,.29,6.53,.48,.44,.04,1.07,.15,1.06,.73,0,.64-.64,.58-1.09,.61-.59,.04-1.18,.03-1.77,0-8.37-.51-16.73-.99-25.09-1.57-1.37-.1-1.82,.28-1.76,1.6,.07,1.36,.08,2.72,0,4.07-.1,1.51,.37,2.2,2.01,2.37,7.46,.78,14.9,1.69,22.34,2.56,.8,.09,1.57-.02,2.22-.43,2.9-1.82,5.21-3.8,5.39-7.81,.47-10.57,4.63-19.79,11.3-27.91,1.03-1.26,1.87-2.57,2.38-4.1,1.18-3.53,2.39-7.05,3.56-10.58,.17-.51,.69-1.17,.03-1.6-.58-.37-1.11,.17-1.57,.53-3.14,2.43-5.96,5.24-8.47,8.29-7.41,9.02-11.5,19.44-12.59,31.05-.04,.43,.12,.97-.94,1.36,.69-16.72,7.65-30.12,19.61-41.47Zm-5.02,47.4c.89-.74,1.5-.56,2.06-.56,2.42-.03,4.84-.03,7.26-.03,1.62,0,2.5-.48,2.68-2.41,.78-8.22,4.29-15.15,10.47-20.64,.89-.79,.89-1.31,.21-2.18-1.79-2.27-3.48-4.62-5.27-6.89-2.7-3.43-1.74-3.69-5.43-.6-4.76,4-8.79,8.51-10.31,14.85-.78,3.26-1.89,6.48-3.2,9.57-2.16,5.1-2.36,10.26-1.42,15.61,1.48,8.41,4.97,15.84,10.6,22.25,.61,.69,1.17,1.58,2.28,.54,2.76-2.58,5.55-5.12,8.37-7.63,1.04-.93,1.14-1.74,.23-2.86-3.49-4.33-5.51-9.31-6.36-14.79-.45-2.87-1.52-3.75-4.42-3.83-2.46-.07-4.92-.24-7.76-.38Zm55.45,43.85c3.15,.26,6.27,.42,9.38,.46,12.22,.13,24.45,.09,36.67,.11,2.28,0,2.42-.19,1.69-2.32-3.65-10.62-6.57-21.45-9.82-32.19-.58-1.92-1.19-3.84-1.73-5.77-.33-1.18-1.36-1.36-2.23-1.39-.94-.03-.57,1-.65,1.53-1.02,7.37-3.51,14.17-7.59,20.41-2.53,3.88-5.49,7.55-9.04,10.3-4.95,3.83-10.43,7.12-16.69,8.86Zm-60.3-42.03c-.68,1.68-1.22,2.86-1.64,4.09-4.22,12.23-8.4,24.46-12.64,36.68-.51,1.48-.11,1.86,1.36,1.86,14.65-.04,29.29-.04,43.94-.08,.73,0,1.53,.19,2.2-.32-.13-.46-.53-.48-.84-.58-6.58-2.08-12.42-5.46-17.48-10.14-.98-.91-1.74-.91-2.73-.06-1.88,1.61-3.83,3.15-5.77,4.69-.32,.26-.74,.86-1.16,.28-.29-.4,.26-.71,.56-.97,1.81-1.6,3.57-3.27,5.47-4.77,1.17-.92,1.25-1.57,.23-2.68-3.63-3.96-6.32-8.53-8.3-13.51-1.8-4.53-2.71-9.27-3.2-14.5Zm84.35-45.13c.7,2.43,1.21,4.53,1.93,6.57,1.33,3.78,1.75,7.88,3.9,11.36,2.09,3.39,3.74,6.96,5.03,10.72,1.35,3.93,2.16,7.97,2.54,12.11,.07,.71-.14,1.76,1.2,1.76,1.65,0,3.3,.18,4.94,.18,10.87,0,21.74,0,32.61-.07,2.42-.02,4.83-.29,7.24-.5,8.24-.7,16.4-2.03,24.61-3.04,7.86-.97,15.69-2,23.34-4.19,3.62-1.03,7.33-1.88,11.16-1.65,.5,.03,1.07-.01,1.1-.6,.04-.73-.64-.5-1.07-.54-.29-.03-.59,.03-.88,.05-9.83,.68-19.66,1.37-29.5,2.05-5.59,.39-11.19,.77-16.78,1.16-9.48,.66-18.95,1.39-28.43,1.98-7.3,.45-14.62,.75-21.92,1.09-.92,.04-1.61,.26-1.75,1.33-.07,.52-.24,1.17-.91,1.1-.62-.06-.72-.72-.81-1.24-.07-.4-.07-.82-.09-1.24-.51-13.91-5.54-25.97-14.91-36.23-.65-.71-1.26-1.52-2.56-2.17Zm-120.49,41.67q0-3.7-3.71-4.13c-.76-.09-1.53-.1-2.3-.15-7.89-.5-15.78-1-23.67-1.51-10.54-.68-21.08-1.36-31.61-2.06-6.18-.41-12.36-.86-18.54-1.28-6.3-.43-12.61-.69-18.88-1.45-.41-.05-.85-.1-.85,.56-.01,1.14,1.7,3.11,2.79,3.23,10.27,1.09,20.54,2.13,30.8,3.28,20.64,2.32,41.28,4.66,61.9,7.08,4.88,.57,3.96,.21,4.07-3.57Zm122.22,2.06h0c-1.48,0-2.95-.02-4.43,0-2.05,.03-2.62,.53-2.94,2.5-.15,.93-.27,1.87-.46,2.79-1.19,5.79-3.7,10.91-7.74,15.28-.92,1-2.05,2.24-.96,3.7,2.01,2.69,4.2,5.25,6.29,7.89,.6,.77,1.1,.68,1.74,.08,8.96-8.26,13.82-18.51,14.92-30.61,.1-1.11-.28-1.67-1.46-1.64-1.65,.04-3.3,0-4.96,0Zm-39.17,37.12s-.05,0-.08,0c0-1.65-.03-3.31,.01-4.96,.02-1.05-.31-1.7-1.47-1.74-.53-.02-1.05-.17-1.57-.24-6.48-.8-12.1-3.49-16.9-7.85-1.13-1.03-1.86-.83-2.83,.04-2.8,2.54-5.6,5.07-8.46,7.53-.86,.74-.66,1.18,.02,1.82,1.68,1.58,3.48,3.02,5.41,4.28,7.27,4.73,15.08,7.76,23.91,7.67,1.43-.02,2.06-.48,1.99-1.95-.08-1.53-.02-3.07-.02-4.6Zm1.32-75.58c0,1.53,.06,3.07-.02,4.6-.09,1.61,.69,2.21,2.19,2.31,7.32,.46,13.5,3.53,18.81,8.44,.98,.91,1.56,.85,2.47,0,2.37-2.21,4.75-4.42,7.26-6.47,1.21-1,1.13-1.61,.08-2.63-4.56-4.43-9.82-7.72-15.74-9.94-4.16-1.56-8.48-2.45-12.92-2.81-1.64-.13-2.26,.45-2.15,2.08,.1,1.47,.02,2.95,.02,4.42Zm37.52,37.41h0c1.48,0,2.95,.01,4.43,0,2.37-.01,2.44-.05,2.36-2.36-.33-9.75-4.24-18.04-10.35-25.45-.64-.78-1.07-.51-1.75-.02-1.37,1-1.56,2.75-2.71,3.87-1.36,1.32-2.62,2.73-4.04,3.97-1.08,.94-1.05,1.68-.26,2.83,3.19,4.62,5.01,9.75,5.32,15.37,.07,1.28,.62,1.81,1.86,1.79,1.71-.03,3.43,0,5.14,0Zm-32.67,44.63c7.08-.55,14.73-3.8,21.66-8.93,.99-.73,1.06-1.39,.27-2.31-2.22-2.6-4.43-5.2-6.58-7.86-.7-.86-1.22-.83-2.05-.21-2.27,1.71-4.74,3.08-7.4,4.1-2.83,1.08-5.76,1.7-8.76,2.05-.82,.1-1.65,.29-1.55,1.29,.27,2.86-.77,5.59-.74,8.42,.04,3.6,0,3.6,5.14,3.46Zm-6.22-81.91c0-1.53-.09-3.07,.02-4.6,.12-1.69-.6-2.14-2.19-2.04-8.12,.53-15.6,2.97-22.52,7.23-1.17,.72-1.2,1.34-.37,2.36,2.19,2.7,4.36,5.43,6.42,8.23,.82,1.11,1.47,1.2,2.6,.47,4.39-2.83,9.17-4.59,14.42-4.88,1.22-.07,1.64-.68,1.62-1.82-.03-1.65,0-3.3,0-4.96Zm-13.26,36.95c3.6,0,7.2,0,10.8,0,.5,0,1.16,.2,1.43-.41,.25-.57-.27-.97-.57-1.39-1.04-1.43-2.1-2.85-3.15-4.27-3.16-4.28-6.66-8.26-10.35-12.08-.63-.65-1.19-1.11-2.06-.28-4.74,4.54-7.54,10.04-8.31,16.57-.16,1.39,.39,1.91,1.78,1.88,3.48-.06,6.96-.02,10.44-.02Zm46.72-48.97c.29-.57-.02-1.11-.18-1.65-1.14-3.97-2.34-7.92-3.41-11.91-.34-1.27-.99-1.66-2.24-1.69-8.02-.21-16.04-.26-24.06-.26-1.7,0-2.42,.54-2.2,2.23,.04,.35,.03,.71,0,1.06-.12,1.33,.42,1.86,1.81,1.94,10.6,.62,20.34,3.84,29.13,9.85,.33,.22,.61,.59,1.16,.43Zm-30.98,36.42c0,3.54-.01,5.96,0,8.37,0,.51-.24,1.23,.26,1.48,.63,.32,1.04-.41,1.44-.77,4.86-4.29,9.66-8.64,14.54-12.9,1.19-1.03,1.07-1.65-.05-2.6-4.13-3.48-8.84-5.57-14.2-6.23-2.33-.29-2.38-.29-2.31,2.12,.13,3.89,.39,7.77,.3,10.53Zm13.87,15h0c-3.13,.01-6.26,0-9.39,.02-.39,0-.9-.16-1.12,.29-.22,.44,.18,.78,.43,1.08,4.25,4.9,8.52,9.79,12.78,14.69,.63,.73,1.2,.83,1.88,.03,3.47-4.12,5.71-8.78,6.37-14.17,.19-1.53-.49-1.98-1.91-1.95-3.01,.06-6.02,.02-9.03,.02Zm-16.73,2.98c-.79,.02-1.02,.4-1.31,.67-3.7,3.46-7.37,6.96-11.12,10.37-1.11,1.01-2.11,2.25-3.68,2.65-.44,.11-1.05,.04-1.13,.64-.07,.52,.46,.79,.8,1.09,4.28,3.67,9.2,5.89,14.84,6.49,1.27,.14,1.71-.24,1.68-1.5-.07-2.95-.07-5.9-.08-8.85-.01-3.83,0-7.65,0-11.57Zm-16.49-53.3c4.71,.16,9.89-.07,15.08-.39,1.24-.08,1.85-.42,1.81-1.75-.06-2.01-.06-4.01,0-6.02,.04-1.31-.51-1.85-1.79-1.72-2.29,.23-4.59,.34-6.86,.68-7.15,1.07-13.83,3.47-20.03,7.22-.56,.34-1.28,.69-1.14,1.42,.17,.91,1.06,.54,1.64,.54,3.6,.04,7.2,.02,11.29,.02Zm2.91,50.33c-3.19,0-6.38-.01-9.57,0-1.89,0-2.14,.3-1.9,2.21,.52,4.25,2.08,8.1,4.53,11.59,1.38,1.96,1.51,1.95,3.35,.36,4.77-4.14,9.49-8.33,14-12.76,.31-.31,.92-.52,.64-1.1-.21-.43-.73-.3-1.13-.3-3.31-.01-6.61,0-9.92,0Zm16.87,1.87c-.14,.05-.28,.09-.42,.14,0,.64,0,1.28,0,1.92,0,4.96,.01,9.93-.03,14.89-.01,1.59-.2,3.18-.27,4.77-.04,.89,.25,1.49,1.33,1.37,4.8-.53,9.19-2.1,13.12-4.93,.85-.61,1-1.12,.23-1.97-2.53-2.81-5.01-5.66-7.47-8.52-2.19-2.54-4.33-5.11-6.5-7.67Zm27.34-52.46c-.05-.12-.06-.26-.14-.31-8.32-5.62-17.51-8.62-27.53-9.17-1.01-.06-1.2,.52-1.2,1.32,0,2.18,.02,4.37,0,6.55,0,1.06,.53,1.44,1.53,1.48,1.94,.08,3.88,.32,5.83,.34,6.73,.05,13.46,.03,20.18,.02,.44,0,.94,.18,1.32-.23Zm-24.87,47.68c.16,.22,.2,.3,.23,.3,6.94,.33,13.89,.08,20.84,.13,.97,0,1.14-.62,1.06-1.44-.47-4.47-1.82-8.62-4.3-12.4-.8-1.23-1.39-1.42-2.56-.32-2.69,2.55-5.54,4.93-8.3,7.41-2.34,2.1-4.66,4.23-6.97,6.33Zm56.85-45.95c-3.9,0-7.79,0-11.69,.01-.5,0-1.21-.28-1.44,.3-.22,.53,.42,.91,.71,1.33,.67,.97,1.58,1.83,2.02,2.89,.82,1.97,2.26,2.54,4.21,2.52,4.96-.06,9.92-.05,14.88-.1,4.72-.05,4.78-.18,4.98-5.08,.06-1.39-.4-1.9-1.8-1.88-3.95,.06-7.91,.02-11.87,.02Zm92.48,1.75v-.04c-2.25,0-4.49,.03-6.74,0-2.88-.04-2.87-.06-2.88,2.92,0,1.07-.09,2.03,1.26,2.58,4.98,2.04,10.21,3.37,15.23,5.3,1.01,.39,1.37,.07,1.5-.95,.35-2.75,.72-5.51,1.17-8.24,.2-1.22-.23-1.59-1.39-1.57-2.72,.04-5.44,.01-8.15,.01Zm-155.5,39.26c.16-.06,.32-.12,.48-.18,0-6.18,0-12.36,0-18.54,0-1.07-.53-1.24-1.47-1.15-3.94,.38-7.58,1.62-11.02,3.55-1.42,.8-1.34,1.47-.24,2.5,2.63,2.46,5.01,5.15,7.31,7.91,1.64,1.97,3.29,3.94,4.93,5.91Zm-28.05-46.74c.14,.08,.29,.16,.43,.23,.46-.23,.93-.46,1.39-.7,7.76-4.05,15.97-6.39,24.75-6.68,2.25-.07,2.29-.24,2.32-3.07,.03-1.89-1.03-1.91-2.4-1.85-8.05,.33-15.76,2.21-23.28,5-.56,.21-1.14,.42-1.34,1.05-.64,2-1.25,4.01-1.87,6.02Zm67.83,21.03c-1.33-4.44-2.58-8.9-4.02-13.3-.48-1.46-1.84-2.02-3.42-2.01-3.6,.03-7.19,0-10.79,0-1.73,0-3.46,0-5.19,0,8.95,3.37,16.64,8.41,23.42,15.31Zm-68.22,29.19c-.15,1.17-.05,1.82,.94,1.89,.92,.07,1.63-.08,1.74-1.22,.1-.99,.29-1.98,.48-2.96,1.23-6.1,4.22-11.2,8.85-15.34,.87-.78,1-1.45,.17-2.37-.87-.96-1.46-.52-2.2,.14-6.02,5.43-9.29,12.21-9.98,19.86Zm33.59-27.51c-1.3-.06-2.1-.03-2.19,1.16-.08,1.1,.35,1.61,1.47,1.72,6.3,.61,11.87,2.95,16.56,7.25,.77,.71,1.3,.51,1.95-.11,.75-.72,.34-1.26-.21-1.78-5.05-4.83-11.15-7.38-17.58-8.24Zm26.85,33.6c-.01-.74,.09-1.56-1.03-1.69-1.08-.12-1.49,.48-1.61,1.42-.05,.35-.09,.7-.15,1.05-.72,4.44-2.3,8.53-4.98,12.16-.63,.85-1.34,1.65-1.99,2.48-.72,.92,.15,1.39,.6,1.93,.49,.58,.94,.2,1.32-.23,4.43-4.86,6.96-10.6,7.84-17.12Zm-33.42,26.73c.68-.24,1.81,.68,2.04-.63,.22-1.32-.8-1.67-1.89-1.77-6.02-.56-11.23-2.95-15.72-6.94-.67-.59-1.26-1.07-2.07-.16-.82,.93-.05,1.39,.49,1.87,4.93,4.3,10.59,6.97,17.16,7.63Zm-.25-60.33c-4.58,.57-9.21,2.13-13.39,4.97-.86,.59-.75,1.18-.22,1.92,.54,.76,1.02,1.21,2,.56,3.74-2.47,7.84-4.02,12.32-4.5,1.08-.12,1.53-.69,1.45-1.78-.08-1.18-.86-1.24-2.16-1.18Zm5.58,60.47c5.99-.41,11.34-2.48,16.15-6.04,.79-.58,.68-1.07,.17-1.75-.63-.83-1.2-.67-1.93-.14-4.09,2.95-8.59,4.86-13.64,5.35-.35,.03-.71,.1-1.02,.24-.73,.33-.7,1.04-.71,1.67,0,.65,.5,.7,1,.67Zm-32.19-26.44c.58,5.34,2.74,10.47,6.36,14.99,.38,.47,.82,.91,1.47,.36,.73-.61,.71-1.27,.16-2-3.15-4.14-4.82-8.86-5.43-13.98-.11-.93-.36-1.6-1.49-1.49-1.1,.1-1.08,.88-1.07,2.12Zm60.32-6.64c-.51-5.23-2.38-10.06-5.35-14.49-.41-.61-.77-1.44-1.77-.7-.9,.67-.9,1.34-.27,2.24,2.82,3.99,4.3,8.48,4.82,13.3,.1,.96,.24,1.79,1.51,1.64,1.23-.15,.99-1.09,1.05-1.99Z"/><path class="cls-1" d="M215.8,421.41l.03-.17s-.03,.1-.05,.15c0,0,.02,.02,.02,.02Z"/></g><g><line class="cls-3" x1="18.19" y1="358.44" x2="18.19" y2="535.2"/><polygon class="cls-1" points="11.04 364.23 12.32 365.42 18.19 359.11 24.06 365.42 25.34 364.23 18.19 356.54 11.04 364.23"/><polygon class="cls-1" points="11.04 529.41 12.32 528.22 18.19 534.53 24.06 528.22 25.34 529.41 18.19 537.1 11.04 529.41"/></g><g><line class="cls-3" x1="52.53" y1="323.74" x2="404.28" y2="323.74"/><polygon class="cls-1" points="58.32 330.89 59.51 329.61 53.2 323.74 59.51 317.88 58.32 316.6 50.63 323.74 58.32 330.89"/><polygon class="cls-1" points="398.49 330.89 397.29 329.61 403.61 323.74 397.29 317.88 398.49 316.6 406.17 323.74 398.49 330.89"/></g><g class="cls-2"><path class="cls-1" d="M225.38,262.37c0-.95,0-1.91,0-2.86,0-24.49,0-48.97,0-73.46q0-3.76-3.66-3.76c-4.33,0-8.66,.08-12.99-.03-2.08-.05-2.71,.75-2.69,2.76,.07,10,.31,20.02-.05,30.01-.4,11.12-.15,22.24-.32,33.35-.01,.72,.19,1.49-.41,2.29-.7-.8-.49-1.71-.49-2.53-.03-6.87-.01-13.74-.02-20.6-.02-12.91-.67-25.81-.38-38.72,.02-.89,0-1.79,.09-2.68,.35-3.58,.37-3.67-3.11-4.04-1.91-.2-3.86-.04-5.81-.51,2.12-.13,4.23-.33,6.35-.38,1.95-.05,2.52-1.02,2.48-2.85-.13-7.23-.57-14.45-.61-21.7-.03-5.42,1.16-10.49,2.73-15.56,1.65-5.35,3.12-10.72,3.56-16.35,.38-4.92-.59-9.65-1.55-14.41-.52-2.56-.97-5.13-1.49-7.69-.43-2.13-.08-4.54-2.21-6.08-.25-.18-.38-.68-.37-1.03,.12-4.83-1.2-9.64-.15-14.49,.22-1.01,.8-1.74,1.3-2.56,.2-.33,.51-.72,.84-.27,1.16,1.58,2.4,.57,3.56,.11,.72-.28,1.11-.28,1.93,.09,2.17,.98,4.55,1.19,6.96,.62,2.26-.54,3.86,.35,4.07,2.54,.4,4.23,.53,8.49-.27,12.71-.34,1.83-1.26,2.76-3.24,3.06-3.13,.48-6.26,.22-9.38,.41-2.2,.13-2.2,.94-1.84,2.62,.97,4.6,1.83,9.22,2.73,13.83,1.5,7.64,1.06,15.2-1.55,22.49-4.07,11.37-4.33,23.04-3.45,34.87,.18,2.38,.21,4.77,.19,7.16-.01,1.57,.51,2.33,2.19,2.32,5.15-.02,10.3,.04,15.45,.11,1.06,.02,1.52-.44,1.58-1.42,.03-.6,.04-1.19,.04-1.79,0-32.55,0-65.09,0-97.64,0-3.7-.02-3.75-3.77-3.68-5.15,.09-10.3-.27-15.44,.12-1.63,.12-1.44-1.04-1.47-2.12-.2-7.68,1.39-15.12,2.85-22.59,.62-3.15,1.19-6.3,1.67-9.47,1.19-7.9,4.73-14.87,8.46-21.77,.55-1.01,1.32-1.62,2.5-1.55,1.55,.09,1.99-.7,2.13-2.16,.36-3.88,1.51-5.82,3.21-5.32,2.52,.73,2.24,3.28,2.47,5.26,.18,1.58,.69,2.34,2.31,2.23,1.22-.09,1.85,.66,2.41,1.64,4.99,8.62,8.21,17.81,9.5,27.73,.77,5.98,2.4,11.85,3.05,17.86,.32,2.96,.34,5.95,.44,8.92,.03,1-.51,1.46-1.58,1.37-4.99-.43-9.99-.03-14.99-.12-3.12-.06-3.28,.14-3.28,3.28,0,26.5,0,53,0,79.5,0,6.27,.06,12.54-.03,18.81-.03,2.14,.7,2.9,2.86,2.83,4.33-.13,8.66-.09,12.99-.01,1.77,.03,2.52-.52,2.56-2.42,.18-8.2,.55-16.39,.72-24.58,.09-4.24-1.49-8.2-2.59-12.21-1.71-6.26-3.71-12.44-3.8-19.01-.06-4.51,.89-8.89,1.78-13.27,.65-3.22,1.21-6.45,1.89-9.66,.37-1.76-.36-2.35-1.99-2.28-2.3,.11-4.59-.11-6.87,.64-1.98,.65-4.74-1.33-5.1-3.36-.72-4.14-.68-8.32-.63-12.5,.02-2.13,.95-3.11,3.3-3.17,3.35-.09,6.7,.15,10.04,.1,1.28-.02,2.55,.05,3.19-1.45,2.37,2.4,3.08,5.13,2.58,8.16-.49,2.95-.08,5.95-.65,8.92-.44,2.3-2.38,3.74-2.67,6.24-.64,5.54-2.04,11-2.89,16.52-.89,5.77-.42,11.59,1.55,17.01,4.41,12.13,5.22,24.55,4.03,37.24-.22,2.37-.09,4.77-.13,7.16-.02,1.27,.58,1.79,1.87,1.99,2.44,.37,4.9,.28,7.36,.57-2.26,.36-4.55,.25-6.82,.49-1.97,.21-2.47,1.01-2.46,2.84,.05,11.94,.16,23.89-.05,35.83-.16,9.33-.31,18.65-.32,27.98,0,.58,.12,1.2-.38,1.85-.78-.74-.51-1.66-.52-2.47-.03-6.72-.05-13.44-.02-20.15,.07-11.79-.69-23.57-.41-35.36,.06-2.53-.12-5.07,.29-7.6,.29-1.82-.33-2.82-2.39-2.79-4.7,.07-9.41,.05-14.11,0-1.5-.02-2.24,.57-2.19,2.09,.02,.75,0,1.49,0,2.24,0,24.26,0,48.52,0,72.78,0,.96,0,1.93,0,2.89-.15,.03-.31,.05-.46,.08Zm0-217.96h.02c0-6.71,0-13.41,0-20.12,0-1.01,.17-2.15-1.14-2.64-1.83-.68-4.26,.04-5.29,1.72-3.12,5.11-5.77,10.47-7.03,16.34-1.82,8.44-3.31,16.94-4.97,25.41-.31,1.55,.19,1.9,1.74,1.85,4.61-.13,9.24-.26,13.85,.01,2.32,.13,2.87-.6,2.85-2.68-.06-6.63-.02-13.26-.02-19.9Zm.43-.04h.03c0,6.72,.03,13.43-.02,20.15-.01,1.76,.44,2.49,2.44,2.4,4.17-.2,8.35-.13,12.53-.04,2.91,.07,2.94,.13,2.39-2.71-1.51-7.83-2.94-15.68-4.56-23.49-1.31-6.35-4.11-12.11-7.47-17.62-1-1.64-2.55-1.76-4.12-1.39-1.61,.38-1.2,1.87-1.21,2.99-.03,6.57-.02,13.13-.02,19.7Zm-10.3,30.43s0-.04,0-.06c2.45,0,4.91-.1,7.36,.03,2.47,.13,2.53-1.36,2.53-3.16,0-1.79-.03-3.2-2.52-3.14-4.9,.11-9.81-.01-14.71-.08-.89-.01-1.43,.26-1.57,1.17-.15,.95-.33,1.9-.47,2.86-.24,1.71,.49,2.46,2.25,2.41,2.38-.08,4.76-.02,7.14-.02Zm19.72-6.35v.06c-1.86,0-3.72,0-5.58,0-3.84,0-4.29,.56-3.8,4.47,.14,1.14,.59,1.77,1.82,1.77,4.91,0,9.81,.02,14.72,.04,1.32,0,1.93-.64,1.81-1.93-.09-.96-.3-1.91-.39-2.87-.12-1.35-.82-1.66-2.11-1.58-2.15,.13-4.31,.04-6.46,.04Zm-15.74,12.73l-.38-.48c-3.15,1.75-5.83,4.12-8.25,6.83,2.88-2.12,5.75-4.23,8.63-6.35Z"/><path class="cls-1" d="M107.44,250.99c-.99-1.24-.75-2.17-.75-3.02-.03-6.87-.02-13.74-.03-20.6-.01-12.61-.67-25.22-.38-37.83,.04-1.64,.16-3.28,.29-4.91,.11-1.42-.36-2.16-1.91-2.41-2.43-.39-4.88-.24-7.31-.65,2.13-.13,4.27-.33,6.4-.36,2.12-.03,2.63-1.17,2.53-3.03-.22-4.1-.51-8.2-.48-12.29,.03-5.44-.48-10.89,.37-16.32,.69-4.37,2.15-8.54,3.48-12.72,2.89-9.12,2.92-18.15,.59-27.35-2.54-9.99-3.13-20.17-2.63-30.44,.01-.28,.12-.56,.18-.85,.8,.02,.64,.6,.63,.97-.24,11.88,1.88,23.45,4.38,34.99,1.65,7.6,1.1,15.2-1.51,22.49-4.07,11.37-4.36,23.04-3.47,34.87,.18,2.45,.21,4.92,.2,7.38,0,1.53,.64,2.13,2.15,2.13,5.15,0,10.3,.02,15.45,.12,1.59,.03,1.64-.96,1.65-2.05,.02-3.43,.01-6.87,.01-10.3,0-8.14,0-16.27-.01-24.41,0-.86,.23-1.79-.38-2.58-3.05,1.98-5.24,.82-5.43-2.88-.76-14.46-.16-28.93-.03-43.39,.01-1.49,.55-2.67,2.06-2.63,1.13,.03,.63-1.11,1.38-1.25,.97-.19,2.23-.11,2.35-1.58,.08-.97,.07-1.94,.07-2.91,0-2.76-.01-5.52,0-8.29,0-1.39-.45-2.29-2.05-2.28-5.37,.02-10.76-.14-16.12,.08-2.04,.08-2.5-.31-2.53-2.35-.11-7.53,1.44-14.83,2.85-22.15,.64-3.3,1.24-6.6,1.76-9.91,1.22-7.82,4.76-14.7,8.44-21.55,.61-1.13,1.55-1.54,2.76-1.51,1.21,.03,1.7-.58,1.79-1.77,.08-1.18,.34-2.36,.58-3.53,.28-1.36,1.33-2.06,2.55-2.17,1.28-.12,1.66,1.08,2.02,2.05,.24,.62,.4,1.3,.42,1.96,.09,2.1,.38,3.87,3.2,3.59,.91-.09,1.27,.89,1.69,1.61,5.08,8.67,8.24,17.96,9.51,27.96,.76,5.99,2.17,11.89,3.05,17.86,.42,2.86,.33,5.8,.39,8.7,.02,1.02-.62,1.3-1.65,1.28-5.22-.09-10.44-.06-15.67-.16-1.83-.03-2.58,.7-2.55,2.5,.06,3.21,0,6.42,.02,9.63,0,1.33,.51,2.2,1.65,3.14,.7,.57,1.36,.91,2.12,1.18,1.2,.43,1.51,1.36,1.51,2.47,.01,14.03,.07,28.07-.02,42.1-.02,2.53-.33,5.2-3.97,5.38-1.39,.07-1.28,1.46-1.28,2.48-.02,4.85-.01,9.71-.01,14.56,0,6.12,.04,12.24-.02,18.36-.02,1.9,.61,2.68,2.59,2.63,4.48-.1,8.96-.08,13.44,0,1.75,.03,2.32-.67,2.36-2.38,.19-8.2,.55-16.39,.73-24.59,.09-4.24-1.49-8.21-2.58-12.21-1.7-6.26-3.71-12.44-3.81-19.01-.06-4.36,.74-8.61,1.7-12.83,2.27-10,3.87-20.06,3.55-30.36-.02-.49-.16-1.05,.44-1.58,.62,.79,.37,1.7,.42,2.51,.67,10.98-.88,21.72-3.36,32.37-1.84,7.9-1.41,15.72,1.32,23.35,4.14,11.57,4.57,23.46,3.51,35.54-.21,2.37-.09,4.77-.14,7.16-.03,1.39,.64,1.89,2.01,2.09,2.43,.37,4.88,.24,7.32,.52-2.26,.42-4.55,.28-6.82,.49-2.11,.2-2.55,1.1-2.55,2.99,.05,11.72,.05,23.44-.02,35.16-.05,9.48-.22,18.95-.36,28.43,0,.61,.25,1.33-.44,1.87-.74-.77-.45-1.7-.45-2.54-.03-6.72,.02-13.44-.04-20.16-.09-10.82-.29-21.64-.37-32.46-.03-3.5-.22-7.02,.28-10.51,.25-1.75-.42-2.66-2.33-2.63-4.78,.06-9.56,.04-14.33,0-1.43-.01-2.06,.62-2.03,2.02,.01,.75,0,1.49,0,2.24,0,24.34,0,48.67,0,73.01,0,.95,0,1.9,0,2.85-.15,0-.31,0-.46,0,0-.87,0-1.74,0-2.61,0-24.71,0-49.42,0-74.13,0-3.35-.03-3.37-3.37-3.37-4.18,0-8.36,0-12.54,0-3.37,0-3.39,.04-3.39,3.34,0,9.7,.27,19.42-.08,29.11-.41,11.2-.16,22.39-.32,33.58,0,.73-.08,1.46-.15,2.67ZM127.28,44.47h.02c0-6.71,0-13.41,0-20.12,0-1.01,.2-2.15-1.07-2.68-1.72-.72-4.31,.02-5.31,1.65-3.28,5.37-5.99,11.01-7.28,17.2-1.68,8.09-3.11,16.22-4.72,24.33-.33,1.68-.04,2.21,1.85,2.13,4.39-.2,8.79-.19,13.18-.08,3.31,.08,3.33,.19,3.34-3.19,0-6.41,0-12.82,0-19.23Zm.43-.34h.03c0,6.79,.03,13.58-.02,20.37-.01,1.75,.42,2.49,2.43,2.41,4.47-.17,8.95-.06,13.42,.06,1.37,.04,2.05-.22,1.71-1.7-2.49-10.65-3.31-21.67-7.05-32.05-1.3-3.61-3.31-6.84-5.18-10.15-.94-1.68-2.54-1.77-4.11-1.41-1.61,.37-1.21,1.86-1.22,2.99-.03,6.49-.02,12.98-.02,19.47Zm-10.08,30.66s0-.04,0-.06c2.38,0,4.76-.1,7.14,.03,2.46,.13,2.53-1.36,2.54-3.16,0-1.79-.03-3.2-2.52-3.15-4.9,.11-9.81-.01-14.72-.08-.89-.01-1.43,.26-1.57,1.17-.15,.95-.33,1.9-.47,2.86-.24,1.71,.49,2.46,2.24,2.41,2.45-.08,4.91-.02,7.36-.02Zm19.08-.06v.06c2.3,0,4.61-.08,6.91,.02,1.97,.09,2.77-.71,2.45-2.64-.14-.88-.31-1.76-.46-2.63-.13-.76-.53-1.17-1.36-1.16-4.91,.06-9.81,.08-14.72,.15-2.26,.03-1.79,1.79-1.78,3.11,0,1.32-.44,3.07,1.81,3.1,2.38,.03,4.76,0,7.14,0Zm-12.96,49.81h-.02c0,3.13,.05,6.27-.02,9.4-.03,1.53,.26,3.36,1.72,3.37,1.12,.01,2.1-1.71,1.85-3.34-.01-.07,0-.15,0-.22,0-6.34,.02-12.68-.02-19.02,0-1.1,.41-2.65-1.48-2.65-1.86,0-2.03,1.4-2.03,2.84,0,3.21,0,6.41,0,9.62Zm6.69,0s-.02,0-.03,0c0-3.5,0-7.01,0-10.51,0-.88-.27-1.7-1.29-1.79-1.17-.11-1.32,.82-1.32,1.65-.02,6.86-.02,13.71,.01,20.57,0,.99,.22,2.11,1.54,2.01,1.26-.09,1.08-1.24,1.09-2.1,.03-3.28,.01-6.56,.01-9.84Zm-3.16-22.52s-.02,0-.03,0c0-2.08,.03-4.16-.01-6.25-.02-1.08-.66-1.59-1.73-1.62-1.09-.03-1.74,.49-1.75,1.57-.03,3.94-.02,7.88,.01,11.82,0,1.19,.73,1.7,1.88,1.72,1.33,.02,1.62-.8,1.62-1.89,0-1.79,0-3.57,0-5.36Zm3.14-.29h.04c0-1.93,.02-3.87,0-5.8-.01-.85-.13-1.72-1.28-1.71-1.06,.02-1.38,.8-1.39,1.68-.03,3.87-.03,7.74,0,11.6,0,.87,.3,1.68,1.4,1.61,.95-.06,1.2-.8,1.21-1.59,.03-1.93,0-3.87,0-5.8Z"/><path class="cls-1" d="M355.59,181.63c-2.26,.4-4.49,.3-6.72,.5-2.07,.19-2.59,1.03-2.58,2.96,.05,12.84,.18,25.68-.07,38.52-.17,8.43-.24,16.86-.31,25.29,0,.55,.2,1.19-.48,1.72-.61-.8-.41-1.71-.41-2.54-.02-6.72,.03-13.44-.03-20.16-.1-11.12-.28-22.23-.37-33.35-.03-3.2-.2-6.42,.28-9.61,.26-1.71-.34-2.69-2.29-2.67-4.78,.06-9.56,.04-14.33,0-1.4-.01-2.1,.56-2.07,1.98,.01,.75-.01,1.49-.01,2.24,0,24.41,0,48.82,0,73.23,0,.88,0,1.76,0,3.16-.66-1.33-.45-2.21-.45-3.05-.01-24.71,0-49.42-.01-74.13,0-3.4-.03-3.41-3.32-3.42-4.4,0-8.81,.09-13.21-.04-2.19-.06-2.82,.78-2.8,2.88,.08,9.85,.31,19.72-.04,29.56-.4,11.27-.17,22.54-.32,33.8,0,.66-.08,1.31-.13,2-.94-.06-.68-.72-.75-1.14-.07-.44-.04-.89-.04-1.34,.28-18.51-.5-37.01-.4-55.52,.01-2.53-.16-5.08,.26-7.6,.26-1.59-.25-2.45-2.05-2.71-2.36-.34-4.74-.18-7.1-.63,2.11-.12,4.22-.32,6.33-.35,2.07-.03,2.63-1.09,2.58-2.99-.17-7.23-.57-14.46-.61-21.7-.03-5.34,1.07-10.37,2.71-15.33,2.13-6.42,3.51-12.95,3.6-19.71,.07-5.43-1.63-10.6-2.63-15.86-2.68-1.18-.67-3.21-.88-4.83-.35-2.72-.98-5.42-1.08-8.14-.18-4.81-.05-9.63,.37-14.44,.91,1.56,.57,3.18,.7,4.77,.1,1.26,.09,2.53,.21,3.8,.04,.48,0,1.16,.58,1.35,.6,.2,.89-.43,1.26-.76,2.6-2.29,3.05-2.18,5.58,.02,1.03,.9,.51,1.83,.55,2.64,.2,4.2,1.3,8.33,.79,12.59-.6,5.11-.98,10.24-1.45,15.37-.02,.22-.06,.45-.13,.66-3.53,9.83-4.29,20.39-7.9,30.2-.6,1.62-.41,3.4-.45,5.11-.19,8.29,.31,16.56,.51,24.83,.04,1.6,.59,2.28,2.24,2.28,5.15-.02,10.3,.04,15.45,.12,1.08,.02,1.5-.5,1.54-1.46,.04-.82,.04-1.64,.04-2.46,0-32.25,0-64.5,0-96.75q0-3.88-3.82-3.87c-5.07,.03-10.15,0-15.22,.13-1.79,.04-1.62-.99-1.65-2.17-.2-7.6,1.37-14.98,2.81-22.37,.64-3.29,1.25-6.6,1.76-9.91,1.21-7.82,4.76-14.71,8.44-21.55,.5-.92,1.2-1.57,2.29-1.5,1.81,.12,2.28-.83,2.33-2.45,.03-1.1,.36-2.21,.67-3.28,.36-1.25,1.47-1.76,2.59-1.79,.98-.03,1.5,.96,1.74,1.82,.34,1.21,.61,2.47,.7,3.73,.1,1.26,.51,2.04,1.86,1.93,1.76-.15,2.35,1.04,3.15,2.3,6.9,10.84,8.47,23.27,10.73,35.51,1.09,5.88,1.89,11.77,1.9,17.76,0,1.6-.41,1.99-2.05,1.94-5.22-.16-10.45-.06-15.67-.09-1.39,0-2.09,.61-2.1,2,0,.6-.02,1.19-.02,1.79,0,32.25,0,64.5,0,96.75q0,3.86,3.77,3.86c4.11,0,8.21-.04,12.32,.02,1.62,.02,2.23-.61,2.27-2.24,.21-8.27,.56-16.54,.73-24.81,.08-4.16-1.48-8.06-2.54-12-1.69-6.26-3.74-12.43-3.84-19.01-.07-4.75,.82-9.35,1.93-13.92,.81-3.33,1.11-6.53,0-9.89-.81-2.47-1.04-5.1-1.25-7.71-.41-5.26,1.71-9.54,4.96-13.63,1.11,1.39,.55,2.89,.63,4.3,.67,12.14-2.26,23.84-4.3,35.65-1,5.82-.36,11.72,1.64,17.22,4.37,11.99,5.09,24.27,3.95,36.81-.22,2.45-.11,4.92-.13,7.38-.01,1.16,.55,1.68,1.74,1.87,2.5,.4,5.03,.32,7.51,.56Zm-29.86-137.15h.02c0-6.71,0-13.41,0-20.12,0-1.01,.2-2.15-1.07-2.68-1.72-.72-4.32,.02-5.31,1.64-3.28,5.37-5.99,11.01-7.28,17.2-1.68,8.09-3.11,16.22-4.72,24.33-.33,1.67-.05,2.22,1.84,2.13,4.39-.2,8.79-.19,13.18-.08,3.32,.08,3.33,.19,3.34-3.19,0-6.41,0-12.82,0-19.23Zm.43-.11h.03c0,6.72,.03,13.43-.02,20.15-.01,1.76,.45,2.48,2.45,2.4,4.24-.19,8.5-.12,12.75-.02,2.6,.06,2.7,.06,2.2-2.51-1.52-7.9-2.97-15.82-4.6-23.71-1.31-6.35-4.11-12.11-7.47-17.62-1.01-1.64-2.56-1.75-4.12-1.38-1.61,.38-1.2,1.87-1.2,3-.03,6.57-.02,13.13-.02,19.7Zm-10.11,30.43s0-.04,0-.06c2.38,0,4.76-.1,7.14,.03,2.44,.14,2.58-1.31,2.56-3.13-.01-1.76,.02-3.23-2.49-3.17-4.9,.1-9.81,0-14.72-.08-1.04-.02-1.51,.39-1.64,1.36-.12,.88-.3,1.76-.43,2.64-.24,1.69,.43,2.49,2.22,2.43,2.45-.08,4.91-.02,7.36-.02Zm19.45-6.35v.05c-1.78,0-3.57,0-5.35,0-3.99,0-4.5,.62-3.95,4.54,.16,1.16,.7,1.7,1.89,1.7,4.83,0,9.66,.01,14.5,.05,1.41,.01,2.1-.59,1.96-2.02-.09-.88-.29-1.76-.36-2.64-.12-1.42-.79-1.83-2.22-1.73-2.14,.16-4.31,.04-6.46,.04Zm-23.46,49.66c.5-1.39,.89-2.11,.37-2.9-.07-.11-.5-.17-.55-.1-.57,.77-.05,1.51,.18,3Zm-.26-6.51c-.73,.48-.83,1-.37,2.3,.36-1.13,.82-1.56,.37-2.3Zm31.2-13.84c-.1-.2-.19-.36-.28-.53-.12,.15-.32,.29-.34,.45-.03,.17,.11,.37,.17,.56,.14-.14,.27-.29,.45-.48Z"/><path class="cls-1" d="M.11,5.3C1.12,1.25,7.1,.52,10.1,2.92c.86,.69,.73,1.6,.22,2.42-.39,.63-.93,1.16-1.41,1.73-.29,.35-.62,.76-.24,1.18,.28,.3,.72,.61,1.11,.64,.56,.05,.56-.56,.72-.96,.43-1.04,.25-3.07,1.51-2.82,1.31,.27,.22,2.03,.28,3.14,.09,1.64-.43,3.65,1.65,4.4,1.26,.45,2.92-1.73,3.1-4.04,.11-1.48-.06-2.97-.08-4.46-.01-.71,.07-1.62,1.06-1.03,2.52,1.49,5.34,1.2,8.03,1.34,3.05,.16,6.17,.59,9.06-1.4,1.5-1.03,3.19,.15,4.4,1.32,1.28,1.24,2.39,2.66,3.61,3.97,.44,.47,.87,1.25,1.59,1.07,.82-.21,.54-1.12,.61-1.74,.2-1.85,.34-3.71,.54-5.56,.05-.51,.13-1.12,.76-1.23,.57-.1,.7,.44,.88,.83,.67,1.44,1.83,.44,2.76,.55,.57,.07,1.4-.17,1.54,.54,.18,.89-.76,.67-1.26,.85-.75,.26-1.83,.15-2.08,1.06-.28,1.01,.72,1.54,1.35,2.14,.97,.92,2.07,1.73,2.95,2.73,1.48,1.67,1.08,3.31-1.07,3.92-2.37,.68-4.72,.58-6.67-1.29-.32-.31-.7-.56-1.05-.84q-2.44-1.97-4.02,.66c-.97,1.62-5.83,2.71-7.83,1.77-2.07-.98-2.53-2.7-1.5-5.56,.19-.52,.76-1.06,.18-1.63-.41-.4-.98-.29-1.49-.15-.81,.22-.93,.87-.88,1.59,.1,1.26,.28,2.53,.25,3.79-.02,1.03,.52,2.8-.83,2.86-1.46,.06-.83-1.72-.96-2.72-.18-1.33-.13-2.69-.35-4-.21-1.25-2.92-2.37-4-1.76-.61,.34-.41,.89-.32,1.39,.23,1.25,.5,2.49,.7,3.74,.1,.62,.49,1.55-.39,1.73-.99,.2-1.09-.87-1.22-1.54-.29-1.46-.43-2.95-.65-4.43-.08-.58-.1-1.37-.88-1.33-.88,.05-.55,.89-.62,1.43-.19,1.56-.42,3.11-1.11,4.55-1.22,2.54-3.78,3.52-6.29,2.3-1.43-.69-2.79-.19-4.14,.03-.77,.13-1.33,.32-1.99-.37-.86-.9-2.57-1.19-.7-3.03,.87-.85-.07-2.84-.2-4.32-.06-.66-.35-1.48,.33-1.85,.92-.5,1.02,.47,1.31,1.01,.25,.47,.63,.66,1.1,.4,.74-.4,1.39-.94,1.52-1.82,.09-.65-.47-.9-.98-1.03C5.23,2.33,2.58,2.4,.11,5.3Zm34.34,7.14c1.68-.01,3.52-.99,4.13-2.26,.81-1.68,.21-3.23-.7-4.63-.62-.96-2.56-1.25-2.47-.56,.25,2.04-1.46,1.94-2.2,2.82-.86,1.02-1.49,2.1-.97,3.45,.37,.96,1.27,1.16,2.22,1.17Zm14.65-.75c.68-.2,1.67,.4,2.07-.7,.14-.38-3.08-3.77-3.47-3.6-1.23,.52-.73,1.78-.89,2.69-.3,1.79,1.18,1.49,2.28,1.61Zm-40.39,.35c.44-.06,.99-.13,.81-.75-.23-.75-.85-1.22-1.62-1.36-.46-.08-.63,.3-.61,.71,.04,.89,.52,1.35,1.42,1.39Z"/><path class="cls-1" d="M283.83,128.74c.48-.53,.18-1.52,.97-1.5,.88,.02,.85,.95,.94,1.55,.17,1.07,.18,2.17,.28,3.53,.34-1.35,.51-2.46,.9-3.48,1.08-2.81,3.49-3.35,5.57-1.18,.96,1,1.31,1.04,2.04-.21,1.09-1.87,3.07-1.76,5.32,.11,1.89,1.57,1.88,2.69,.33,4.5-.72,.84-2.64,.8-2.18,2.39,.33,1.14,1.67,1.63,2.61,2.35,.59,.45,1.84,.77,1.22,1.74-.51,.8-1.54,.18-2.23-.2-.84-.47-1.58-1.1-2.36-1.68-.42-.31-.92-1.02-1.19-.93-2.99,.95-2.54-1.18-2.71-2.85-.07-.71-.65-.93-1.34-.85-.59,.07-1.19,.07-1.78,.16-.75,.11-1.82-.59-2.17,.49-.33,1.01,.82,1.03,1.4,1.4,.32,.21,.62,.43,.6,.86-.02,.45-.35,.67-.72,.73-1.89,.31-3.7-.61-5.41-.63-1.48-.01-2.59,2.32-4.73,2.4-3.44,.13-6.76-.8-10.16-.87-3.18-.07-6.35-.19-9.53-.12-1.21,.03-2.37-.03-3.54-.31-1.88-.46-3.36-1.4-3.63-3.46-.29-2.15,.92-3.7,2.69-4.49,2.81-1.25,5.83-1.93,8.91-1.04,1,.29,1.91,.05,2.86,.12,.91,.07,2,.17,2.48,.85,1.31,1.87,2.52,1.62,4.01,.29,.6-.54,1.48-.77,2.32-.67,1.48,.17,2.65,.6,2.03,2.56-.26,.83-.27,1.76-.28,2.65-.01,1.25,.56,2.23,1.83,2.48,1.41,.28,2.25-.66,2.74-1.81,.58-1.36,.34-2.77,.07-4.18-.14-.73-1.05-1.72-.05-2.17,.87-.4,1.14,.94,1.86,1.48Zm-21.72,3.01c0-2.14-1.51-3.49-3.85-3.45-1.8,.03-4.16,2.15-4.19,3.76-.03,1.73,1.71,2.77,4.62,2.77,2.86,0,3.42-.51,3.42-3.08Zm14.4-1.68c.09-.71-.21-.91-.76-.93-1.3-.04-3.82,2.43-3.73,3.71,.1,1.37,1.21,1.77,2.25,2.18,.48,.19,1.26,.36,1.31-.29,.13-1.64,.32-3.25,.92-4.67Zm19.17,.03c.14,.69-.19,1.81,.95,1.64,1.12-.17,2.59-.53,2.64-1.94,.04-1.19-1.29-1.62-2.27-1.73-1.51-.17-1.13,1.19-1.32,2.03Zm-27.01-.09c-.35-.8-1.01-1.06-1.8-.9-1.04,.2-2.11,.46-2.01,1.88,.06,.76,.62,.79,1.13,.55,.92-.42,2.35,.04,2.68-1.53Zm21.16,.45c.42-.43,1.72,.51,1.74-.82,.01-.85-.79-1.4-1.7-1.38-.89,.02-1.29,.69-1.39,1.45-.13,.98,.62,.75,1.36,.74Zm-19.99,3.38c-.15-.48-.27-1.1-1.06-1.02-.5,.05-1.21,.12-1.26,.65-.1,.91,.8,.84,1.38,1,.45,.12,.9,.12,.94-.63Z"/><path class="cls-1" d="M23.42,75.94c-.34,1.22-.68,2.19-.88,3.18-.23,1.17-.19,2.32,1.26,2.68,1.4,.34,2.51-.08,3.12-1.47,.53-1.2,.41-2.49,.47-3.75,.03-.5-.07-1.23,.56-1.32,.87-.12,.75,.74,.88,1.27,.16,.64,.25,1.3,.4,2.1,1.11-.5,.75-1.83,1.74-2.4,.86,1.34,.34,2.67-.1,3.9-.63,1.78-.46,2.61,1.69,1.95,.54-.17,1.18-.14,1.76-.09,.36,.03,.74,.33,.66,.75-.04,.22-.35,.52-.58,.56-1.39,.28-2.78,.62-4.19,.7-1.42,.08-1.87-.93-1.64-2.63-2.17,2.61-4.45,2.82-6.86,1.38-1.13-.67-1.62,.03-2.28,.62-2.38,2.14-3.33,2.23-6.21,.88-1.14-.54-2.38-.85-3.58-1.24-1.42-.45-1.73-1.29-.95-2.55,.74-1.21,1.51-2.4,2.21-3.63,.31-.55,.86-1.2,.22-1.82-.28-.27-.82-.43-1.22-.39-.95,.09-.83,.93-.84,1.56-.03,1.49-.53,2.86-1.44,3.93-1.11,1.29-1.79,2.32,0,3.52,.3,.2,.43,.65,.15,.99-.3,.35-.72,.21-1.03,.02-1.19-.75-2.25-.87-3.43,.15-.58,.5-1.25-.12-1.72-.62-2.27-2.39-2.1-8.34,.38-10.51,1.62-1.42,3.31-1.73,5.56-.98,3.22,1.06,6.65,1.48,9.99,2.17,.76,.16,1.66-.01,2.23,.96-.96,.73-2.12,.67-3.17,.9-1.83,.41-2.88,1.5-3.07,3.37-.17,1.71,1.81,3.25,3.44,2.68,.76-.27,.83-.74,.36-1.38-.94-1.25-.16-1.76,.93-1.51,1.92,.44,2.73-.39,3.2-2.08,.23-.82,.71-1.6,1.98-1.85Zm-17.67,3.21c1.03-.18,1.19-1.07,1.51-1.77,.59-1.25,.6-2.51-.63-3.4-1.29-.93-2.41-.24-3.4,.64-2,1.79-2.25,4.78-.55,7.37,.24-.43,.51-.77,.65-1.17,.5-1.44,.23-2.95,.37-4.42,.06-.7-.07-1.73,.97-1.69,.87,.04,.66,.99,.74,1.62,.12,.92-.27,1.91,.34,2.81Zm5.23,1.34c-.06,.2-.14,.38-.14,.57,0,.05,.33,.17,.34,.15,.11-.15,.18-.33,.23-.51,0-.03-.23-.11-.43-.2Zm2.01-3.93c.2-.08,.43-.09,.53-.22,.17-.2,.72-.53,.11-.71-.34-.1-.73,.32-.64,.93Z"/><path class="cls-1" d="M432.83,34.5c-1.11,2.44-2.57,3.69-4.4,4.65-1.39,.72-1.57,1.74,.05,2.58,.33,.17,.66,.36,.96,.58,.54,.4,1.23,.85,.75,1.61-.44,.7-1.21,.44-1.83,.17-.54-.24-1.09-.51-1.55-.88-1.1-.89-2.16-.97-3.52-.48-2.06,.74-3.99,.35-5.47-1.42-1.43-1.71-2.09-3.62-1.21-5.81,.85-2.1,2.53-3.07,4.71-3.21,1.21-.07,2.3-.23,3.38-.93,1.67-1.08,3.49-.82,5.09,.18,1.5,.94,3.16,1.29,4.8,1.75,1.41,.39,2.54,.16,3.71-.82,2-1.69,4.29-1.44,6.52-.43,1.17,.53,1.9,1.49,1.78,2.84-.11,1.28-1.01,2.02-2.14,2.31-1.51,.39-3.08,.55-4.61,.87-1.69,.34-2.95,.94-1.66,3,.58,.93,.15,1.55-.82,1.86-1.76,.58-3.53,.53-5.28,0-.74-.22-1.48-.59-1.31-1.53,.15-.82,.91-.97,1.59-.87,1.44,.22,1.72-.36,1.38-1.64-.33-1.26-.55-2.54-.93-4.39Zm-11.34,6.56c.78-.14,1.75-.15,2.03-1.07,.27-.87-.64-1.02-1.19-1.35-.45-.27-.97-.51-.94-1.13,.03-.69,.63-.75,1.14-.82,.89-.11,1.09-.65,.93-1.43-.13-.65-.16-1.48-1.04-1.49-1.39-.01-2.63,.48-3.56,1.56-.95,1.1-.89,2.31-.25,3.54,.61,1.18,1.42,2.1,2.89,2.17Zm3.35-6.14c.12,1.03,.31,2.17,1.71,2.1,1.45-.07,3.08-.46,3.25-2.12,.17-1.57-1.35-1.97-2.64-2.12-1.47-.17-2.18,.68-2.33,2.14Zm15.08,.89c.66-.11,1.32-.2,1.97-.34,.8-.18,2.19,.17,2.12-1-.07-1.27-1.47-1.21-2.49-1.23-.93-.02-1.73,.38-2.36,1.06-.3,.32-.66,.69-.42,1.16,.24,.49,.76,.34,1.19,.34Zm-4.62,1.96c.29-.94,.8-1.49,.14-2.11-.12-.11-.51-.14-.6-.05-.61,.64-.17,1.2,.46,2.16Z"/><path class="cls-1" d="M99.45,101.36c-1,.62-1.99,.26-2.97,0-5.54-1.47-9.14-5.39-12.37-9.78-1.63-2.22-3.23-4.47-4.92-6.65-3.66-4.7-8.7-6.62-14.45-6.89-2.85-.14-5.72-.02-9.1-.02,1.62,1.84,3.34,2.15,4.84,2.87,.63,.3,1.63,.51,1.26,1.5-.28,.75-1.17,.58-1.79,.47-2.24-.42-4.26-1.34-6.02-2.79-1.02-.84-1.22-1.89-.5-2.98,1.34-2.02,3.12-3.6,5.21-4.81,.53-.31,1.16-.55,1.59,.1,.42,.63,0,1.15-.47,1.55-1.12,.94-2.4,1.72-3.35,3.36,1.57-.29,2.84-.59,4.13-.77,8.04-1.13,14.87,.99,20.18,7.4,2.9,3.5,5.18,7.47,8.35,10.78,2.43,2.54,5.15,4.49,8.57,5.44,.66,.18,1.51,.22,1.82,1.23Z"/><path class="cls-1" d="M381.42,38.02c-.64-2.88,1.24-4.98,1.14-7.44-.01-.25,.4-.65,.7-.76,.65-.23,4.24,2.15,4.53,2.93,.45,1.18,.88,2.37,1.36,3.54,.07,.17,.32,.26,.62,.5,.71-1.39-.5-2.27-.69-3.32-.08-.44-.23-.92,.26-1.19,.39-.21,.76,.06,.96,.36,1.18,1.81,2.13,.88,3.12-.2,.34-.37,.76-.93,1.31-.59,.66,.42,.34,1.11,.02,1.58-1.65,2.4-3.06,4.9-4.04,7.65-.18,.52-.58,.91-1.17,.9-.88-.03-1.29-.69-1.54-1.41-.66-1.95-1.26-3.91-1.92-5.95-1.65,.95-1.9,2.46-2.41,3.84-.82,2.26-1.81,2.63-3.83,1.4-.57-.35-.96-.54-1.57-.1-1.49,1.07-2.36,.26-2.87-1.14-.56-1.55-.91-3.15-.88-4.81,0-.36-.02-.83,.39-.95,.6-.18,.74,.39,.88,.78,.38,1.11,.71,2.25,1.17,3.74,2.06-3.91,2.95-.31,4.45,.65Z"/><path class="cls-1" d="M353.27,89.64c-.15,0-.3,.01-.45,0-1.07-.12-2.86,.2-2.79-1.07,.08-1.48,1.68-.32,2.59-.44,6.07-.82,12.02-1.9,15.79-7.49,1.77-2.62,1.6-3.87-.66-6.07-1.76-1.71-3.65-3.29-5.38-5.03-2.06-2.07-2.75-4.66-1.96-7.43,1.01-3.55,2.91-6.68,5.26-9.53,.39-.47,.9-1.26,1.63-.67,.57,.46,.04,1.12-.25,1.61-1.24,2.12-2.6,4.18-3.78,6.33-2.07,3.76-1.71,6.24,1.27,9.27,1.67,1.7,3.44,3.3,5.11,5.01,2.13,2.2,2.29,3.97,.75,6.66-2.07,3.61-5.23,5.89-9.06,7.25-2.6,.93-5.29,1.53-8.08,1.6Z"/><path class="cls-1" d="M65.65,17.66c-1.79,.66-3.61,.77-5.45,.73-7.61-.14-15.21-.36-22.82-.44-11.34-.11-22.67,.21-34,.78-.97,.05-2.71,.46-2.74-.63-.05-1.45,1.7-.97,2.71-1.01,14.92-.53,29.84-.65,44.76-.45,5.37,.07,10.74,.28,16.1,.45,.48,.01,1.07-.16,1.44,.57Z"/><path class="cls-1" d="M13.78,94.75c-.58-.92-.3-1.59-.24-2.24,.28-3.22,.19-3.37-3.02-3.71-.66-.07-1.36-.06-2,.09-.75,.18-1.91,.1-2.01,1.05-.09,.83,1.05,.88,1.66,1.26,1.01,.63,2.08,1.17,3.07,1.83,.5,.33,.85,.87,.7,1.54-.17,.75-.75,1.13-1.45,1.21-2.37,.26-4.37-.7-6.89-1.9,2.43-.96,4.17,.46,6.3,.06-1.53-1.34-3.28-1.54-4.74-2.3-.79-.41-1.81-.7-1.74-1.8,.06-1.08,1.08-1.34,1.93-1.6,2.18-.68,4.44-.46,6.67-.4,1.86,.05,3.71,.31,5.57,.4,1.3,.06,2.31,.52,2.98,1.65,.72,1.2,1.45,1.38,2.33,.12,.39-.56,1.03-1.09,1.7-.58,.74,.56,.17,1.24-.2,1.76-1.43,2-2.89,3.99-4.38,5.95-.33,.44-.82,1.07-1.47,.5-.48-.43-.08-.98,.16-1.43,.25-.45,.58-.87,.88-1.29,1.27-1.81-.04-4.98-2.25-5.29-1.57-.21-3.11-.27-2.61,2.2,.2,.97,.11,2.05-.95,2.92Z"/><path class="cls-1" d="M400.49,31.9c3.21,.33,6.02,.55,8.82,.94,2.69,.37,3.91,2.45,3.13,5.05-.78,2.59-3.58,4.41-6.42,4.17-1.2-.1-2.33-.83-3.65-.06-.7,.4-.88-.56-.9-1.14-.06-1.56-.05-3.12-.08-4.68-.03-1.68-.71-2.67-2.57-2.55-.62,.04-1.61,.2-1.67-.64-.07-.89,.96-.71,1.56-.83,.72-.16,1.47-.21,1.8-.25Zm7.5,1.96c-1.9-.04-4.21,2.04-4.17,3.77,.05,1.64,.91,2.61,2.63,2.69,2.28,.1,4.43-1.75,4.41-3.79-.02-1.98-1.47-2.36-2.88-2.66Z"/><path class="cls-1" d="M39.26,78.42c.21-1.01,.32-1.71,.51-2.4,.42-1.54,1.46-2.41,3.05-2.5,1.65-.09,2.9,.63,3.54,2.18,.61,1.49,0,2.61-1.3,3.4-1.45,.88-.52,1.31,.3,1.82,.83,.52,2.6,.81,2.09,1.84-.65,1.3-2.08,.09-3.14-.21-.56-.16-1.1-.49-1.56-.84-1.82-1.4-1.67-2.83,.37-3.86,.71-.36,1.69-.53,1.51-1.63-.15-.85-.9-1.16-1.68-1.19-1.04-.04-1.69,.56-1.94,1.51-.34,1.32-.22,2.66,0,3.99,.14,.81,.37,1.64-.04,2.41-.34,.63-.67,1.48-1.56,1.37-.87-.11-.73-.99-.85-1.62-.34-1.67-.47-3.4-1.25-4.96-.27-.55-.67-1.02-1.38-.94-.48,.05-.87,.32-.97,.8-.17,.81,.57,.7,1,.9,.31,.14,.54,.37,.34,.68-.41,.64-1.13,.67-1.78,.71-.56,.04-.81-.38-.77-.87,.11-1.21,.35-2.42,1.56-3.02,1.22-.6,2.14,.01,2.89,.98,.31,.39,.59,.8,1.06,1.46Z"/><path class="cls-1" d="M38.23,89c-1.84,.9-3.13,.49-4.34,.66-.44,.06-1,.09-1.04,.63-.04,.6,.53,.59,.97,.64,.15,.02,.3-.01,.45,.02,.86,.18,2.36-.42,2.35,.84-.01,.93-1.5,.43-2.33,.58-.63,.11-1.51-.06-1.5,.91,0,.8,.71,1.07,1.41,1.18,1.05,.17,2.07-.05,3.1-.25,.49-.09,1.15-.27,1.31,.43,.14,.61-.44,.87-.9,1.11-.2,.1-.42,.24-.62,.23-3.51-.15-6.99,1.13-10.51,.13-1.69-.48-2.2-1.43-1.39-2.99,.77-1.47,1.33-3.1,3.13-4.19,.08,1.46-.8,2.3-1.11,3.32-.21,.69-.76,1.51,.09,2.01,.89,.52,1.96,.87,3,.47,.83-.33,.55-1.15,.41-1.77-.29-1.28,.79-2.43,.32-3.73-.04-.12,.47-.59,.77-.65,1.95-.4,3.91-.52,6.44,.42Z"/><path class="cls-1" d="M253.54,89.09c3.45-.13,6.34,.75,9,2.34,2.84,1.7,3.37,3.96,1.71,6.82-.83,1.43-1.92,2.63-3.25,3.64-3.48,2.62-5.76,5.94-6.29,10.4-.18,1.54,.03,2.95,.38,4.4,.1,.41,.32,.96-.26,1.14-.52,.17-.78-.34-.99-.72-.44-.79-.7-1.65-.71-2.56-.04-4.16,.82-7.92,4.04-10.96,1.94-1.83,4.21-3.34,5.73-5.61,1.57-2.33,1.33-3.89-.94-5.52-1.8-1.29-3.9-1.82-6-2.36-.76-.2-1.63-.11-2.42-1.03Z"/><path class="cls-1" d="M53.96,2.56c.25-1.81,1.3-2.15,2.37-2.44,.35-.1,.74-.13,1.1-.12,2.06,.06,4.75-.29,5.46,1.95,.67,2.15-1.87,3.02-3.45,4.04-1.34,.87-2.88,1.61-.43,3,.19,.11,.33,.52,.28,.75-.08,.42-.5,.52-.88,.53-1.45,0-2.65-.54-3.28-1.89-.61-1.31,.24-2.11,1.24-2.73,1.07-.67,2.19-1.25,3.27-1.91,.43-.26,1-.54,.94-1.14-.07-.75-.8-.78-1.34-.97-1.76-.62-3.34,.14-5.29,.93Z"/><path class="cls-1" d="M363.76,36.61c-.13-.83,.36-1.94-1.05-2.31-.66-.17-.65-.79-.26-1.25,.61-.72,1.12-1.69,2.18-1.77,.75-.05,.89,.67,.92,1.29,.05,.96,.05,1.93,.06,2.9,.02,1.68-.33,3.55,2.19,3.83,.44,.05,.77,.46,.68,.99-.09,.5-.47,.8-.93,.83-1.03,.08-2.09,.21-3.1,.06-1.37-.21-2.35-.82-1.11-2.37,.51-.63,.38-1.41,.41-2.19Z"/><path class="cls-1" d="M368.46,51.78c.39-1.87-.31-1.94-1.6-1.16-1.15,.69-2.31,1.35-3.48,1.99-.49,.26-1.05,.3-1.38-.25-.34-.58,.03-1.02,.51-1.28,1.83-.99,3.61-2.09,5.53-2.87,1.72-.7,2.56,.03,2.46,1.86-.03,.59-.12,1.19-.28,1.76-.2,.72,.21,2.02-.87,1.98-1.19-.04-.9-1.28-.89-2.03Z"/><path class="cls-1" d="M257.95,115.21c.88,2.16,.07,5.15-1.57,6.22-.84,.55-1.69,.54-2.49-.04-.48-.35-.97-.73-1.31-1.2-.63-.88-2.4-1.7-1.37-2.78,.74-.78,1.65,.82,2.32,1.52,1.34,1.39,2.2,1.16,2.94-.55,.44-1.03,.48-2.29,1.48-3.16Z"/><path class="cls-1" d="M60.48,13.56c-.02,.65-.13,1.22-.72,1.32-.67,.12-.88-.4-.87-.97,.01-.54,.19-1.05,.82-1.11,.59-.06,.65,.45,.77,.75Z"/></g></g></svg>